<svg width="34" height="16" viewBox="0 0 34 16" fill="none" xmlns="http://www.w3.org/2000/svg">
<g id="Group 10">
<path id="Plane (Traced)" fill-rule="evenodd" clip-rule="evenodd" d="M0.886919 2.92891C0.843428 2.96817 0.82299 3.07009 0.839156 3.16697C0.8547 3.26012 1.4368 4.65347 2.13271 6.26326C2.82861 7.87304 3.38706 9.20823 3.37369 9.23025C3.36037 9.25232 2.86374 9.31998 2.27006 9.38065C1.11602 9.49862 1.0994 9.5051 1.14976 9.81738C1.18286 10.0226 1.3529 10.0976 2.16325 10.2646L2.9033 10.4172L3.10269 10.7265C3.21231 10.8966 3.30841 11.074 3.31622 11.1209C3.32403 11.1677 3.36301 11.2326 3.40286 11.265C3.44266 11.2974 4.03395 11.4365 4.71677 11.5742C6.34169 11.9018 7.68868 12.0129 8.49312 11.8859C9.02137 11.8025 9.16482 11.809 11.0116 11.999C12.9669 12.2003 12.9709 12.2003 13.5765 12.0905C13.9101 12.0299 17.7813 11.4339 22.1791 10.7659L30.1752 9.55147L30.9723 9.08659C31.7365 8.64095 33.0202 7.64536 33.2056 7.35458C33.2677 7.25716 33.2684 7.20223 33.2089 7.07469C33.152 6.95258 32.9119 6.78872 32.168 6.36413C31.2292 5.8283 31.1751 5.80578 30.3144 5.59196L29.4277 5.37168L24.247 6.05589L19.0663 6.74004L18.8312 6.50293C18.7019 6.37252 18.5672 6.26794 18.5318 6.27053C18.4186 6.27883 18.3812 6.44126 18.447 6.63913C18.4934 6.77871 18.4921 6.82979 18.4419 6.83211C18.4044 6.83387 16.3795 7.09773 13.9422 7.41856L9.51065 8.00193L8.2267 7.70028L6.94277 7.39869L4.54782 5.08398L2.15288 2.76927L1.55791 2.81475C1.23069 2.83979 0.928758 2.89114 0.886919 2.92891Z" fill="#23232F"/>
<rect id="Rectangle 12" x="1.39099" y="14.4623" width="32.0172" height="1.29945" fill="#23232F"/>
</g>
</svg>
