<svg width="32" height="18" viewBox="0 0 32 18" fill="none" xmlns="http://www.w3.org/2000/svg">
<g id="Group 9">
<path id="Plane (Traced)" fill-rule="evenodd" clip-rule="evenodd" d="M2.12168 0.893872C2.06988 0.920854 2.0218 1.0139 2.00935 1.1112C1.99739 1.20476 2.14507 2.69118 2.33753 4.41429C2.53 6.13741 2.67212 7.56194 2.65336 7.57982C2.63464 7.59776 2.15135 7.53936 1.57936 7.45008C0.46749 7.27658 0.450122 7.27868 0.408372 7.59189C0.380937 7.79772 0.518492 7.91225 1.22818 8.27467L1.87629 8.60568L1.97465 8.95307C2.02871 9.14411 2.06804 9.33889 2.06202 9.38591C2.05601 9.43294 2.07397 9.50511 2.102 9.54623C2.12997 9.58734 2.64289 9.86843 3.24177 10.1708C4.66693 10.8905 5.89395 11.3326 6.68172 11.4105C7.19903 11.4616 7.33124 11.5034 9.00283 12.1458C10.7727 12.8261 10.7763 12.8271 11.3734 12.872C11.7023 12.8967 15.4891 13.2858 19.7883 13.7367L27.6052 14.5566L28.4823 14.3072C29.323 14.0683 30.8056 13.429 31.0616 13.1951C31.1473 13.1168 31.1636 13.0641 31.1442 12.9265C31.1257 12.7947 30.948 12.5772 30.3736 11.9833C29.6488 11.2339 29.6047 11.1987 28.8612 10.7787L28.0954 10.3461L23.06 9.71604L18.0247 9.08597L17.8724 8.79917C17.7886 8.64144 17.6925 8.50722 17.6587 8.50091C17.5506 8.48076 17.4695 8.62785 17.4746 8.83473C17.4783 8.98068 17.4625 9.02952 17.415 9.01928C17.3795 9.01164 15.4124 8.76197 13.0437 8.46454L8.73701 7.92381L7.62308 7.31396L6.50914 6.70417L4.92956 3.87963L3.34999 1.05509L2.78112 0.950871C2.46825 0.893583 2.17152 0.867906 2.12168 0.893872Z" fill="#23232F"/>
<rect id="Rectangle 12" x="0.349854" y="16.4622" width="31.0706" height="1.29945" fill="#23232F"/>
</g>
</svg>
