<svg width="239" height="71" viewBox="0 0 239 71" fill="none" xmlns="http://www.w3.org/2000/svg">
<g id="Plane (Traced)" filter="url(#filter0_d_42_68)">
<path fill-rule="evenodd" clip-rule="evenodd" d="M10.2944 0.413024C9.93911 0.63598 9.67329 1.25666 9.67329 1.86281C9.67329 2.44563 12.1552 11.3218 15.1886 21.5873C18.222 31.8529 20.6049 40.3589 20.4839 40.4889C20.3632 40.6193 16.7573 40.8124 12.4707 40.9184C4.13811 41.1245 4.01247 41.157 4.00004 43.1101C3.99188 44.3935 5.1102 44.9343 10.6653 46.3339L15.7383 47.6124L16.7875 49.6144C17.3642 50.7154 17.8362 51.8558 17.8362 52.1488C17.8362 52.4417 18.036 52.8605 18.2806 53.0788C18.5247 53.2972 22.5576 54.4254 27.2421 55.5857C38.3898 58.3468 47.8208 59.6444 53.6822 59.2241C57.5312 58.948 58.5419 59.0528 71.4277 61.0643C85.0708 63.1945 85.0985 63.1968 89.5281 62.7922C91.9681 62.5692 120.157 60.6395 152.17 58.504L210.375 54.6212L216.585 52.109C222.538 49.7008 232.831 44.1289 234.492 42.4156C235.048 41.8415 235.118 41.5023 234.846 40.687C234.587 39.9065 233.077 38.7848 228.298 35.8233C222.268 32.0858 221.911 31.9221 216.054 30.2104L210.02 28.447L172.43 30.3281L134.841 32.2089L133.452 30.6368C132.689 29.7721 131.856 29.0646 131.602 29.0646C130.789 29.0646 130.331 30.0516 130.563 31.3045C130.728 32.1883 130.657 32.5034 130.298 32.495C130.03 32.4889 115.342 33.2021 97.6587 34.0805L65.5071 35.6779L56.7493 33.2315L47.9915 30.7855L33.7312 15.3928L19.4709 0L15.1932 0.0114724C12.8405 0.0179737 10.6362 0.198481 10.2944 0.413024Z" fill="#F7FBFA"/>
</g>
<defs>
<filter id="filter0_d_42_68" x="0" y="0" width="239" height="71" filterUnits="userSpaceOnUse" color-interpolation-filters="sRGB">
<feFlood flood-opacity="0" result="BackgroundImageFix"/>
<feColorMatrix in="SourceAlpha" type="matrix" values="0 0 0 0 0 0 0 0 0 0 0 0 0 0 0 0 0 0 127 0" result="hardAlpha"/>
<feOffset dy="4"/>
<feGaussianBlur stdDeviation="2"/>
<feComposite in2="hardAlpha" operator="out"/>
<feColorMatrix type="matrix" values="0 0 0 0 0.968627 0 0 0 0 0.984314 0 0 0 0 0.980392 0 0 0 0.25 0"/>
<feBlend mode="normal" in2="BackgroundImageFix" result="effect1_dropShadow_42_68"/>
<feBlend mode="normal" in="SourceGraphic" in2="effect1_dropShadow_42_68" result="shape"/>
</filter>
</defs>
</svg>
